<?xml version="1.0" standalone="no"?><!-- Generator: Gravit.io --><svg xmlns="http://www.w3.org/2000/svg" xmlns:xlink="http://www.w3.org/1999/xlink" style="isolation:isolate" viewBox="662.5 186.808 515.5 605" width="515.5" height="605"><defs><clipPath id="_clipPath_1FqmoGxC1JyQsCmwCuDsKQt5P3mVkMHZ"><rect x="662.5" y="186.808" width="515.5" height="605"/></clipPath></defs><g clip-path="url(#_clipPath_1FqmoGxC1JyQsCmwCuDsKQt5P3mVkMHZ)"><rect x="736" y="201.808" width="427" height="575" transform="matrix(1,0,0,1,0,0)" fill="rgb(255,255,255)" vector-effect="non-scaling-stroke" stroke-width="10" stroke="rgb(0,0,0)" stroke-linejoin="miter" stroke-linecap="square" stroke-miterlimit="3"/><clipPath id="_clipPath_rrtNfli6JTYHVLS2EmAx1RxXIenbpCNG"><rect x="736" y="201.808" width="427" height="575" transform="matrix(1,0,0,1,0,0)" fill="rgb(255,255,255)" vector-effect="non-scaling-stroke" stroke-width="10" stroke="rgb(0,0,0)" stroke-linejoin="miter" stroke-linecap="square" stroke-miterlimit="3"/></clipPath><g clip-path="url(#_clipPath_rrtNfli6JTYHVLS2EmAx1RxXIenbpCNG)"><g><path d="M 761.22 227 L 992.78 227 C 996.765 227 1000 230.235 1000 234.22 L 1000 238.78 C 1000 242.765 996.765 246 992.78 246 L 761.22 246 C 757.235 246 754 242.765 754 238.78 L 754 234.22 C 754 230.235 757.235 227 761.22 227 Z" style="stroke:none;fill:#2E2E2E;stroke-miterlimit:10;"/><path d="M 761.22 227 L 992.78 227 C 996.765 227 1000 230.235 1000 234.22 L 1000 238.78 C 1000 242.765 996.765 246 992.78 246 L 761.22 246 C 757.235 246 754 242.765 754 238.78 L 754 234.22 C 754 230.235 757.235 227 761.22 227 Z" style="fill:none;stroke:#000000;stroke-width:1;stroke-linecap:square;stroke-miterlimit:3;"/><path d="M 759.967 263 L 916.033 263 C 919.326 263 922 265.674 922 268.967 L 922 276.033 C 922 279.326 919.326 282 916.033 282 L 759.967 282 C 756.674 282 754 279.326 754 276.033 L 754 268.967 C 754 265.674 756.674 263 759.967 263 Z" style="stroke:none;fill:#2E2E2E;stroke-linecap:square;stroke-miterlimit:3;"/><path d="M 759.967 263 L 916.033 263 C 919.326 263 922 265.674 922 268.967 L 922 276.033 C 922 279.326 919.326 282 916.033 282 L 759.967 282 C 756.674 282 754 279.326 754 276.033 L 754 268.967 C 754 265.674 756.674 263 759.967 263 Z" style="fill:none;stroke:#000000;stroke-width:1;stroke-linecap:square;stroke-miterlimit:3;"/><path d="M 759.967 305 L 916.033 305 C 919.326 305 922 307.674 922 310.967 L 922 318.033 C 922 321.326 919.326 324 916.033 324 L 759.967 324 C 756.674 324 754 321.326 754 318.033 L 754 310.967 C 754 307.674 756.674 305 759.967 305 Z" style="stroke:none;fill:#2E2E2E;stroke-linecap:square;stroke-miterlimit:3;"/><path d="M 759.967 305 L 916.033 305 C 919.326 305 922 307.674 922 310.967 L 922 318.033 C 922 321.326 919.326 324 916.033 324 L 759.967 324 C 756.674 324 754 321.326 754 318.033 L 754 310.967 C 754 307.674 756.674 305 759.967 305 Z" style="fill:none;stroke:#000000;stroke-width:1;stroke-linecap:square;stroke-miterlimit:3;"/></g><rect x="764" y="364" width="371" height="392" transform="matrix(1,0,0,1,0,0)" fill="rgb(255,255,255)" vector-effect="non-scaling-stroke" stroke-width="10" stroke="rgb(0,0,0)" stroke-linejoin="miter" stroke-linecap="square" stroke-miterlimit="3"/></g><g><g><circle vector-effect="non-scaling-stroke" cx="795" cy="405" r="10" fill="rgb(255,255,255)" stroke-width="5" stroke="rgb(0,0,0)" stroke-linejoin="miter" stroke-linecap="butt" stroke-miterlimit="3"/><circle vector-effect="non-scaling-stroke" cx="827" cy="404.99999999999994" r="10" fill="rgb(255,255,255)" stroke-width="5" stroke="rgb(0,0,0)" stroke-linejoin="miter" stroke-linecap="butt" stroke-miterlimit="3"/><circle vector-effect="non-scaling-stroke" cx="863" cy="404.9999999999999" r="10" fill="rgb(255,255,255)" stroke-width="5" stroke="rgb(0,0,0)" stroke-linejoin="miter" stroke-linecap="butt" stroke-miterlimit="3"/><circle vector-effect="non-scaling-stroke" cx="894.9999999999998" cy="404.9999999999999" r="10" fill="rgb(255,255,255)" stroke-width="5" stroke="rgb(0,0,0)" stroke-linejoin="miter" stroke-linecap="butt" stroke-miterlimit="3"/></g><g><circle vector-effect="non-scaling-stroke" cx="983.0000000000001" cy="405" r="10" fill="rgb(255,255,255)" stroke-width="5" stroke="rgb(0,0,0)" stroke-linejoin="miter" stroke-linecap="butt" stroke-miterlimit="3"/><circle vector-effect="non-scaling-stroke" cx="1015" cy="405" r="10" fill="rgb(255,255,255)" stroke-width="5" stroke="rgb(0,0,0)" stroke-linejoin="miter" stroke-linecap="butt" stroke-miterlimit="3"/><circle vector-effect="non-scaling-stroke" cx="1051" cy="405" r="10" fill="rgb(255,255,255)" stroke-width="5" stroke="rgb(0,0,0)" stroke-linejoin="miter" stroke-linecap="butt" stroke-miterlimit="3"/><circle vector-effect="non-scaling-stroke" cx="1083" cy="405" r="10" fill="rgb(0,0,0)" stroke-width="5" stroke="rgb(0,0,0)" stroke-linejoin="miter" stroke-linecap="butt" stroke-miterlimit="3"/></g></g><g><g><circle vector-effect="non-scaling-stroke" cx="794.9999999999999" cy="443" r="10" fill="rgb(255,255,255)" stroke-width="5" stroke="rgb(0,0,0)" stroke-linejoin="miter" stroke-linecap="butt" stroke-miterlimit="3"/><circle vector-effect="non-scaling-stroke" cx="826.9999999999999" cy="443" r="10" fill="rgb(255,255,255)" stroke-width="5" stroke="rgb(0,0,0)" stroke-linejoin="miter" stroke-linecap="butt" stroke-miterlimit="3"/><circle vector-effect="non-scaling-stroke" cx="863" cy="443" r="10" fill="rgb(0,0,0)" stroke-width="5" stroke="rgb(0,0,0)" stroke-linejoin="miter" stroke-linecap="butt" stroke-miterlimit="3"/><circle vector-effect="non-scaling-stroke" cx="894.9999999999998" cy="443" r="10" fill="rgb(255,255,255)" stroke-width="5" stroke="rgb(0,0,0)" stroke-linejoin="miter" stroke-linecap="butt" stroke-miterlimit="3"/></g><g><circle vector-effect="non-scaling-stroke" cx="983" cy="443" r="10" fill="rgb(255,255,255)" stroke-width="5" stroke="rgb(0,0,0)" stroke-linejoin="miter" stroke-linecap="butt" stroke-miterlimit="3"/><circle vector-effect="non-scaling-stroke" cx="1015" cy="443" r="10.000000000000057" fill="rgb(255,255,255)" stroke-width="5" stroke="rgb(0,0,0)" stroke-linejoin="miter" stroke-linecap="butt" stroke-miterlimit="3"/><circle vector-effect="non-scaling-stroke" cx="1051" cy="443" r="10" fill="rgb(255,255,255)" stroke-width="5" stroke="rgb(0,0,0)" stroke-linejoin="miter" stroke-linecap="butt" stroke-miterlimit="3"/><circle vector-effect="non-scaling-stroke" cx="1083" cy="443" r="10" fill="rgb(0,0,0)" stroke-width="5" stroke="rgb(0,0,0)" stroke-linejoin="miter" stroke-linecap="butt" stroke-miterlimit="3"/></g></g><g><g><circle vector-effect="non-scaling-stroke" cx="794.9999999999999" cy="481" r="10" fill="rgb(255,255,255)" stroke-width="5" stroke="rgb(0,0,0)" stroke-linejoin="miter" stroke-linecap="butt" stroke-miterlimit="3"/><circle vector-effect="non-scaling-stroke" cx="826.9999999999999" cy="481" r="10" fill="rgb(255,255,255)" stroke-width="5" stroke="rgb(0,0,0)" stroke-linejoin="miter" stroke-linecap="butt" stroke-miterlimit="3"/><circle vector-effect="non-scaling-stroke" cx="863" cy="481" r="10" fill="rgb(255,255,255)" stroke-width="5" stroke="rgb(0,0,0)" stroke-linejoin="miter" stroke-linecap="butt" stroke-miterlimit="3"/><circle vector-effect="non-scaling-stroke" cx="894.9999999999998" cy="481" r="10" fill="rgb(255,255,255)" stroke-width="5" stroke="rgb(0,0,0)" stroke-linejoin="miter" stroke-linecap="butt" stroke-miterlimit="3"/></g><g><circle vector-effect="non-scaling-stroke" cx="983" cy="481" r="10" fill="rgb(255,255,255)" stroke-width="5" stroke="rgb(0,0,0)" stroke-linejoin="miter" stroke-linecap="butt" stroke-miterlimit="3"/><circle vector-effect="non-scaling-stroke" cx="1015" cy="481" r="10.000000000000057" fill="rgb(255,255,255)" stroke-width="5" stroke="rgb(0,0,0)" stroke-linejoin="miter" stroke-linecap="butt" stroke-miterlimit="3"/><circle vector-effect="non-scaling-stroke" cx="1051" cy="481" r="10" fill="rgb(255,255,255)" stroke-width="5" stroke="rgb(0,0,0)" stroke-linejoin="miter" stroke-linecap="butt" stroke-miterlimit="3"/><circle vector-effect="non-scaling-stroke" cx="1083" cy="481" r="10" fill="rgb(0,0,0)" stroke-width="5" stroke="rgb(0,0,0)" stroke-linejoin="miter" stroke-linecap="butt" stroke-miterlimit="3"/></g></g><g><g><circle vector-effect="non-scaling-stroke" cx="794.9999999999999" cy="519" r="10" fill="rgb(255,255,255)" stroke-width="5" stroke="rgb(0,0,0)" stroke-linejoin="miter" stroke-linecap="butt" stroke-miterlimit="3"/><circle vector-effect="non-scaling-stroke" cx="826.9999999999999" cy="519" r="10" fill="rgb(255,255,255)" stroke-width="5" stroke="rgb(0,0,0)" stroke-linejoin="miter" stroke-linecap="butt" stroke-miterlimit="3"/><circle vector-effect="non-scaling-stroke" cx="863" cy="519" r="10" fill="rgb(255,255,255)" stroke-width="5" stroke="rgb(0,0,0)" stroke-linejoin="miter" stroke-linecap="butt" stroke-miterlimit="3"/><circle vector-effect="non-scaling-stroke" cx="894.9999999999998" cy="519" r="10" fill="rgb(255,255,255)" stroke-width="5" stroke="rgb(0,0,0)" stroke-linejoin="miter" stroke-linecap="butt" stroke-miterlimit="3"/></g><g><circle vector-effect="non-scaling-stroke" cx="983" cy="519" r="10" fill="rgb(255,255,255)" stroke-width="5" stroke="rgb(0,0,0)" stroke-linejoin="miter" stroke-linecap="butt" stroke-miterlimit="3"/><circle vector-effect="non-scaling-stroke" cx="1015" cy="519" r="10.000000000000057" fill="rgb(255,255,255)" stroke-width="5" stroke="rgb(0,0,0)" stroke-linejoin="miter" stroke-linecap="butt" stroke-miterlimit="3"/><circle vector-effect="non-scaling-stroke" cx="1051" cy="519" r="10" fill="rgb(0,0,0)" stroke-width="5" stroke="rgb(0,0,0)" stroke-linejoin="miter" stroke-linecap="butt" stroke-miterlimit="3"/><circle vector-effect="non-scaling-stroke" cx="1083" cy="519" r="10" fill="rgb(255,255,255)" stroke-width="5" stroke="rgb(0,0,0)" stroke-linejoin="miter" stroke-linecap="butt" stroke-miterlimit="3"/></g></g><g><g><circle vector-effect="non-scaling-stroke" cx="794.9999999999997" cy="557" r="10" fill="rgb(255,255,255)" stroke-width="5" stroke="rgb(0,0,0)" stroke-linejoin="miter" stroke-linecap="butt" stroke-miterlimit="3"/><circle vector-effect="non-scaling-stroke" cx="826.9999999999997" cy="557" r="10" fill="rgb(255,255,255)" stroke-width="5" stroke="rgb(0,0,0)" stroke-linejoin="miter" stroke-linecap="butt" stroke-miterlimit="3"/><circle vector-effect="non-scaling-stroke" cx="862.9999999999998" cy="557" r="10" fill="rgb(0,0,0)" stroke-width="5" stroke="rgb(0,0,0)" stroke-linejoin="miter" stroke-linecap="butt" stroke-miterlimit="3"/><circle vector-effect="non-scaling-stroke" cx="894.9999999999995" cy="557" r="10" fill="rgb(255,255,255)" stroke-width="5" stroke="rgb(0,0,0)" stroke-linejoin="miter" stroke-linecap="butt" stroke-miterlimit="3"/></g><g><circle vector-effect="non-scaling-stroke" cx="982.9999999999998" cy="557" r="10" fill="rgb(255,255,255)" stroke-width="5" stroke="rgb(0,0,0)" stroke-linejoin="miter" stroke-linecap="butt" stroke-miterlimit="3"/><circle vector-effect="non-scaling-stroke" cx="1014.9999999999995" cy="557" r="9.999999999999943" fill="rgb(255,255,255)" stroke-width="5" stroke="rgb(0,0,0)" stroke-linejoin="miter" stroke-linecap="butt" stroke-miterlimit="3"/><circle vector-effect="non-scaling-stroke" cx="1051" cy="557" r="10" fill="rgb(255,255,255)" stroke-width="5" stroke="rgb(0,0,0)" stroke-linejoin="miter" stroke-linecap="butt" stroke-miterlimit="3"/><circle vector-effect="non-scaling-stroke" cx="1083" cy="557" r="10" fill="rgb(0,0,0)" stroke-width="5" stroke="rgb(0,0,0)" stroke-linejoin="miter" stroke-linecap="butt" stroke-miterlimit="3"/></g></g><g><g><circle vector-effect="non-scaling-stroke" cx="795" cy="589" r="10" fill="rgb(255,255,255)" stroke-width="5" stroke="rgb(0,0,0)" stroke-linejoin="miter" stroke-linecap="butt" stroke-miterlimit="3"/><circle vector-effect="non-scaling-stroke" cx="827" cy="589" r="10" fill="rgb(255,255,255)" stroke-width="5" stroke="rgb(0,0,0)" stroke-linejoin="miter" stroke-linecap="butt" stroke-miterlimit="3"/><circle vector-effect="non-scaling-stroke" cx="863.0000000000002" cy="589" r="10" fill="rgb(255,255,255)" stroke-width="5" stroke="rgb(0,0,0)" stroke-linejoin="miter" stroke-linecap="butt" stroke-miterlimit="3"/><circle vector-effect="non-scaling-stroke" cx="895" cy="589" r="10" fill="rgb(255,255,255)" stroke-width="5" stroke="rgb(0,0,0)" stroke-linejoin="miter" stroke-linecap="butt" stroke-miterlimit="3"/></g><g><circle vector-effect="non-scaling-stroke" cx="983.0000000000002" cy="589" r="10" fill="rgb(255,255,255)" stroke-width="5" stroke="rgb(0,0,0)" stroke-linejoin="miter" stroke-linecap="butt" stroke-miterlimit="3"/><circle vector-effect="non-scaling-stroke" cx="1015" cy="589" r="10" fill="rgb(255,255,255)" stroke-width="5" stroke="rgb(0,0,0)" stroke-linejoin="miter" stroke-linecap="butt" stroke-miterlimit="3"/><circle vector-effect="non-scaling-stroke" cx="1051.0000000000005" cy="589" r="10" fill="rgb(255,255,255)" stroke-width="5" stroke="rgb(0,0,0)" stroke-linejoin="miter" stroke-linecap="butt" stroke-miterlimit="3"/><circle vector-effect="non-scaling-stroke" cx="1083.0000000000002" cy="589" r="10" fill="rgb(0,0,0)" stroke-width="5" stroke="rgb(0,0,0)" stroke-linejoin="miter" stroke-linecap="butt" stroke-miterlimit="3"/></g></g><g><g><circle vector-effect="non-scaling-stroke" cx="794.9999999999995" cy="622" r="10" fill="rgb(255,255,255)" stroke-width="5" stroke="rgb(0,0,0)" stroke-linejoin="miter" stroke-linecap="butt" stroke-miterlimit="3"/><circle vector-effect="non-scaling-stroke" cx="826.9999999999995" cy="622" r="10" fill="rgb(255,255,255)" stroke-width="5" stroke="rgb(0,0,0)" stroke-linejoin="miter" stroke-linecap="butt" stroke-miterlimit="3"/><circle vector-effect="non-scaling-stroke" cx="862.9999999999998" cy="622" r="10" fill="rgb(255,255,255)" stroke-width="5" stroke="rgb(0,0,0)" stroke-linejoin="miter" stroke-linecap="butt" stroke-miterlimit="3"/><circle vector-effect="non-scaling-stroke" cx="894.9999999999995" cy="622" r="10" fill="rgb(255,255,255)" stroke-width="5" stroke="rgb(0,0,0)" stroke-linejoin="miter" stroke-linecap="butt" stroke-miterlimit="3"/></g><g><circle vector-effect="non-scaling-stroke" cx="982.9999999999998" cy="622" r="10" fill="rgb(255,255,255)" stroke-width="5" stroke="rgb(0,0,0)" stroke-linejoin="miter" stroke-linecap="butt" stroke-miterlimit="3"/><circle vector-effect="non-scaling-stroke" cx="1014.9999999999995" cy="622" r="10" fill="rgb(255,255,255)" stroke-width="5" stroke="rgb(0,0,0)" stroke-linejoin="miter" stroke-linecap="butt" stroke-miterlimit="3"/><circle vector-effect="non-scaling-stroke" cx="1051.0000000000002" cy="622" r="10" fill="rgb(0,0,0)" stroke-width="5" stroke="rgb(0,0,0)" stroke-linejoin="miter" stroke-linecap="butt" stroke-miterlimit="3"/><circle vector-effect="non-scaling-stroke" cx="1082.9999999999998" cy="622" r="10" fill="rgb(255,255,255)" stroke-width="5" stroke="rgb(0,0,0)" stroke-linejoin="miter" stroke-linecap="butt" stroke-miterlimit="3"/></g></g><g><g><circle vector-effect="non-scaling-stroke" cx="794.9999999999994" cy="652" r="10" fill="rgb(0,0,0)" stroke-width="5" stroke="rgb(0,0,0)" stroke-linejoin="miter" stroke-linecap="butt" stroke-miterlimit="3"/><circle vector-effect="non-scaling-stroke" cx="826.9999999999994" cy="652" r="10" fill="rgb(255,255,255)" stroke-width="5" stroke="rgb(0,0,0)" stroke-linejoin="miter" stroke-linecap="butt" stroke-miterlimit="3"/><circle vector-effect="non-scaling-stroke" cx="862.9999999999997" cy="652" r="10" fill="rgb(255,255,255)" stroke-width="5" stroke="rgb(0,0,0)" stroke-linejoin="miter" stroke-linecap="butt" stroke-miterlimit="3"/><circle vector-effect="non-scaling-stroke" cx="894.9999999999994" cy="652" r="10" fill="rgb(255,255,255)" stroke-width="5" stroke="rgb(0,0,0)" stroke-linejoin="miter" stroke-linecap="butt" stroke-miterlimit="3"/></g><g><circle vector-effect="non-scaling-stroke" cx="982.9999999999997" cy="652" r="10" fill="rgb(255,255,255)" stroke-width="5" stroke="rgb(0,0,0)" stroke-linejoin="miter" stroke-linecap="butt" stroke-miterlimit="3"/><circle vector-effect="non-scaling-stroke" cx="1014.9999999999995" cy="652" r="10.000000000000057" fill="rgb(255,255,255)" stroke-width="5" stroke="rgb(0,0,0)" stroke-linejoin="miter" stroke-linecap="butt" stroke-miterlimit="3"/><circle vector-effect="non-scaling-stroke" cx="1051" cy="652" r="10" fill="rgb(0,0,0)" stroke-width="5" stroke="rgb(0,0,0)" stroke-linejoin="miter" stroke-linecap="butt" stroke-miterlimit="3"/><circle vector-effect="non-scaling-stroke" cx="1082.9999999999995" cy="652" r="10" fill="rgb(255,255,255)" stroke-width="5" stroke="rgb(0,0,0)" stroke-linejoin="miter" stroke-linecap="butt" stroke-miterlimit="3"/></g></g><g><g><circle vector-effect="non-scaling-stroke" cx="794.9999999999993" cy="688" r="10" fill="rgb(255,255,255)" stroke-width="5" stroke="rgb(0,0,0)" stroke-linejoin="miter" stroke-linecap="butt" stroke-miterlimit="3"/><circle vector-effect="non-scaling-stroke" cx="826.9999999999993" cy="688" r="10" fill="rgb(0,0,0)" stroke-width="5" stroke="rgb(0,0,0)" stroke-linejoin="miter" stroke-linecap="butt" stroke-miterlimit="3"/><circle vector-effect="non-scaling-stroke" cx="862.9999999999995" cy="688" r="10" fill="rgb(255,255,255)" stroke-width="5" stroke="rgb(0,0,0)" stroke-linejoin="miter" stroke-linecap="butt" stroke-miterlimit="3"/><circle vector-effect="non-scaling-stroke" cx="894.9999999999993" cy="688" r="10" fill="rgb(255,255,255)" stroke-width="5" stroke="rgb(0,0,0)" stroke-linejoin="miter" stroke-linecap="butt" stroke-miterlimit="3"/></g><g><circle vector-effect="non-scaling-stroke" cx="982.9999999999995" cy="688" r="10" fill="rgb(255,255,255)" stroke-width="5" stroke="rgb(0,0,0)" stroke-linejoin="miter" stroke-linecap="butt" stroke-miterlimit="3"/><circle vector-effect="non-scaling-stroke" cx="1014.9999999999993" cy="688" r="10" fill="rgb(255,255,255)" stroke-width="5" stroke="rgb(0,0,0)" stroke-linejoin="miter" stroke-linecap="butt" stroke-miterlimit="3"/><circle vector-effect="non-scaling-stroke" cx="1051" cy="688" r="10" fill="rgb(255,255,255)" stroke-width="5" stroke="rgb(0,0,0)" stroke-linejoin="miter" stroke-linecap="butt" stroke-miterlimit="3"/><circle vector-effect="non-scaling-stroke" cx="1082.9999999999995" cy="688" r="10" fill="rgb(0,0,0)" stroke-width="5" stroke="rgb(0,0,0)" stroke-linejoin="miter" stroke-linecap="butt" stroke-miterlimit="3"/></g></g><g><g><circle vector-effect="non-scaling-stroke" cx="794.9999999999992" cy="720" r="10" fill="rgb(255,255,255)" stroke-width="5" stroke="rgb(0,0,0)" stroke-linejoin="miter" stroke-linecap="butt" stroke-miterlimit="3"/><circle vector-effect="non-scaling-stroke" cx="826.9999999999992" cy="720" r="10" fill="rgb(0,0,0)" stroke-width="5" stroke="rgb(0,0,0)" stroke-linejoin="miter" stroke-linecap="butt" stroke-miterlimit="3"/><circle vector-effect="non-scaling-stroke" cx="862.9999999999994" cy="720" r="10" fill="rgb(255,255,255)" stroke-width="5" stroke="rgb(0,0,0)" stroke-linejoin="miter" stroke-linecap="butt" stroke-miterlimit="3"/><circle vector-effect="non-scaling-stroke" cx="894.9999999999992" cy="720" r="10" fill="rgb(255,255,255)" stroke-width="5" stroke="rgb(0,0,0)" stroke-linejoin="miter" stroke-linecap="butt" stroke-miterlimit="3"/></g><g><circle vector-effect="non-scaling-stroke" cx="982.9999999999994" cy="720" r="10" fill="rgb(255,255,255)" stroke-width="5" stroke="rgb(0,0,0)" stroke-linejoin="miter" stroke-linecap="butt" stroke-miterlimit="3"/><circle vector-effect="non-scaling-stroke" cx="1014.9999999999991" cy="720" r="9.999999999999943" fill="rgb(255,255,255)" stroke-width="5" stroke="rgb(0,0,0)" stroke-linejoin="miter" stroke-linecap="butt" stroke-miterlimit="3"/><circle vector-effect="non-scaling-stroke" cx="1051" cy="720" r="10" fill="rgb(255,255,255)" stroke-width="5" stroke="rgb(0,0,0)" stroke-linejoin="miter" stroke-linecap="butt" stroke-miterlimit="3"/><circle vector-effect="non-scaling-stroke" cx="1082.9999999999995" cy="720" r="10" fill="rgb(0,0,0)" stroke-width="5" stroke="rgb(0,0,0)" stroke-linejoin="miter" stroke-linecap="butt" stroke-miterlimit="3"/></g></g><g><path d="M 719.83 376.5 L 796.27 376.5 C 827.911 376.5 853.6 402.189 853.6 433.83 L 853.6 660.17 C 853.6 691.811 827.911 717.5 796.27 717.5 L 719.83 717.5 C 688.189 717.5 662.5 691.811 662.5 660.17 L 662.5 433.83 C 662.5 402.189 688.189 376.5 719.83 376.5 Z" style="stroke:none;fill:#FFFFFF;stroke-linecap:square;stroke-miterlimit:3;"/><g><path d=" M 820.6 376.5 L 707.45 376.5 C 684.2 376.5 662.5 398.975 662.5 423 L 662.5 671 C 662.5 699.675 689.625 717.5 709 717.5 L 820.6 717.5 C 843.85 717.5 864 697.35 864 674.1 L 864 419.9 C 864 396.65 843.85 376.5 820.6 376.5 Z  M 763.25 698.125 C 757.05 698.125 751.625 692.7 751.625 686.5 C 751.625 680.3 757.05 674.875 763.25 674.875 C 769.45 674.875 774.875 680.3 774.875 686.5 C 774.875 692.7 769.45 698.125 763.25 698.125 Z  M 825.25 663.25 L 701.25 663.25 L 701.25 423 L 825.25 423 L 825.25 663.25 Z " fill="rgb(0,0,0)"/><path d=" M 775.819 500.025 L 756.106 519.738 L 803.487 519.738 C 796.917 510.071 787.102 503.077 775.819 500.025 L 775.819 500.025 Z  M 738.823 504.959 L 738.921 504.959 L 738.921 532.774 L 751.515 520.18 L 772.431 499.264 C 769.461 498.699 766.368 498.38 763.225 498.38 C 754.339 498.38 746.016 500.761 738.823 504.959 L 738.823 504.959 Z  M 777.464 522.684 L 810.999 556.169 C 811.563 553.199 811.882 550.13 811.882 546.988 C 811.882 538.15 809.501 529.828 805.352 522.684 L 777.464 522.684 Z  M 774.96 573.82 L 754.044 594.736 C 757.014 595.301 760.108 595.62 763.25 595.62 C 772.088 595.62 780.41 593.239 787.554 589.09 L 787.554 561.226 L 774.96 573.82 Z  M 790.5 557.667 L 790.5 587.249 C 800.05 580.768 807.169 570.997 810.213 559.557 L 790.5 539.868 L 790.5 557.667 Z  M 722.989 574.262 C 729.47 583.787 739.241 590.907 750.656 593.975 L 770.369 574.262 L 722.989 574.262 Z  M 716.262 534.394 L 735.976 554.107 L 735.976 506.751 C 726.305 513.306 719.309 523.115 716.262 534.394 L 716.262 534.394 Z  M 736.417 558.722 L 715.501 537.806 C 714.921 540.841 714.625 543.923 714.618 547.012 C 714.618 555.85 716.999 564.172 721.148 571.316 L 749.011 571.316 L 736.417 558.722 Z " fill="rgb(10,42,73)"/></g></g></g></svg>